<svg xmlns="http://www.w3.org/2000/svg" viewBox="0 0 512 512" width="100%" height="100%">
  <defs>
    <linearGradient id="bgGrad" x1="0%" y1="0%" x2="100%" y2="100%">
      <stop offset="0%" stop-color="#8B5CF6"/>
      <stop offset="50%" stop-color="#7C3AED"/>
      <stop offset="100%" stop-color="#6D28D9"/>
    </linearGradient>
    <linearGradient id="heartGrad" x1="0%" y1="0%" x2="0%" y2="100%">
      <stop offset="0%" stop-color="#F472B6"/>
      <stop offset="100%" stop-color="#EC4899"/>
    </linearGradient>
    <linearGradient id="bubbleGrad" x1="0%" y1="0%" x2="0%" y2="100%">
      <stop offset="0%" stop-color="#FFFFFF"/>
      <stop offset="100%" stop-color="#F3E8FF"/>
    </linearGradient>
  </defs>
  <rect width="512" height="512" rx="128" fill="url(#bgGrad)"/>
  <circle cx="200" cy="230" r="130" fill="url(#bubbleGrad)" opacity="0.95"/>
  <circle cx="312" cy="230" r="130" fill="url(#bubbleGrad)" opacity="0.95"/>
  <path d="M190 340 L160 400 L240 360 Z" fill="url(#bubbleGrad)" opacity="0.95"/>
  <path d="M322 340 L352 400 L272 360 Z" fill="url(#bubbleGrad)" opacity="0.95"/>
  <path d="M256 320 C256 320 160 260 160 190 C160 150 190 125 225 125 C246 125 256 140 256 140 C256 140 266 125 287 125 C322 125 352 150 352 190 C352 260 256 320 256 320 Z" fill="url(#heartGrad)"/>
  <circle cx="225" cy="165" r="8" fill="#FFFFFF" opacity="0.8"/>
  <circle cx="287" cy="165" r="8" fill="#FFFFFF" opacity="0.8"/>
</svg>
